<?xml version="1.0" encoding="utf-8"?>
<!-- Generator: Adobe Illustrator 27.5.0, SVG Export Plug-In . SVG Version: 6.00 Build 0)  -->
<svg version="1.1" id="Ebene_1" xmlns="http://www.w3.org/2000/svg" xmlns:xlink="http://www.w3.org/1999/xlink" x="0px" y="0px"
	 viewBox="0 0 512 512" style="enable-background:new 0 0 512 512;" xml:space="preserve">
<style type="text/css">
	.st0{fill:url(#SVGID_1_);}
	.st1{fill:#FFFFFF;}
</style>
<g>
	
		<linearGradient id="SVGID_1_" gradientUnits="userSpaceOnUse" x1="0" y1="258" x2="512" y2="258" gradientTransform="matrix(1 0 0 -1 0 514)">
		<stop  offset="0" style="stop-color:#E22828"/>
		<stop  offset="1" style="stop-color:#FF8C2F"/>
	</linearGradient>
	<path class="st0" d="M411.7,512H100.3C44.9,512,0,467.2,0,412V100C0,44.8,44.9,0,100.3,0h311.3C467.1,0,512,44.8,512,100v312
		C512,467.2,467.1,512,411.7,512z"/>
</g>
<g id="circle">
	<circle class="st1" cx="384.7" cy="129.8" r="33"/>
	<circle class="st1" cx="129.5" cy="383.7" r="33"/>
	<g>
		<path class="st1" d="M92.8,339.5c-3.8,0-7.5-2.2-9.1-5.9c-15.4-34.6-20.1-72.8-13.4-110.2c6.8-38.4,25-73.2,52.6-100.9
			c27.6-27.6,62.5-45.8,100.9-52.6c37.5-6.6,75.6-2,110.2,13.4c5,2.2,7.3,8.2,5.1,13.2c-2.2,5.1-8.2,7.3-13.2,5.1
			c-63.7-28.3-139.6-14.3-188.8,35c-49.3,49.3-63.3,125.2-35,188.8c2.2,5,0,11-5.1,13.2C95.5,339.2,94.1,339.5,92.8,339.5z"/>
		<path class="st1" d="M256.6,445.9c-26.4,0-52.5-5.5-76.9-16.4c-5.1-2.2-7.3-8.2-5.1-13.2s8.2-7.3,13.2-5.1
			c63.7,28.3,139.6,14.3,188.8-35s63.4-125.2,35-188.8c-2.2-5.1,0-11,5.1-13.2c5-2.2,11,0,13.2,5.1c15.4,34.6,20.1,72.8,13.5,110.2
			c-6.8,38.4-25,73.2-52.6,100.9c-27.6,27.6-62.5,45.8-100.9,52.6C278.8,445,267.7,445.9,256.6,445.9z"/>
	</g>
</g>
<g>
	<path class="st1" d="M184.1,245v33.5c11.4,11.3,37.6,17.6,75.6,17.6s64.1-6.3,75.6-17.6V245c-12.4,8.5-35,15.1-75.6,15.1
		S196.6,253.4,184.1,245z"/>
	<path class="st1" d="M184.1,288.1v33.1c0,16.5,38,25.2,75.6,25.2s75.6-8.6,75.6-25.2v-33.1c-12.4,8.5-35,15.1-75.6,15.1
		S196.6,296.6,184.1,288.1z"/>
	<path class="st1" d="M259.7,166.6c-37.5,0-75.6,8.6-75.6,25.2v0.4c11.4,11.3,37.6,17.6,75.6,17.6s64.1-6.3,75.6-17.6v-0.4
		C335.2,175.2,297.2,166.6,259.7,166.6z"/>
	<path class="st1" d="M184.1,201.8v33.5c11.4,11.3,37.6,17.6,75.6,17.6s64.1-6.3,75.6-17.6v-33.5c-12.4,8.5-35,15.1-75.6,15.1
		S196.6,210.3,184.1,201.8z"/>
</g>
</svg>
