<?xml version="1.0" encoding="utf-8"?>
<!-- Generator: Adobe Illustrator 27.5.0, SVG Export Plug-In . SVG Version: 6.00 Build 0)  -->
<svg version="1.1" id="Ebene_1" xmlns="http://www.w3.org/2000/svg" xmlns:xlink="http://www.w3.org/1999/xlink" x="0px" y="0px"
	 viewBox="0 0 512 512" style="enable-background:new 0 0 512 512;" xml:space="preserve">
<style type="text/css">
	.st0{fill:url(#SVGID_1_);}
	.st1{fill:#FFFFFF;}
</style>
<g>
	
		<linearGradient id="SVGID_1_" gradientUnits="userSpaceOnUse" x1="0" y1="258" x2="512" y2="258" gradientTransform="matrix(1 0 0 -1 0 514)">
		<stop  offset="0" style="stop-color:#E22828"/>
		<stop  offset="1" style="stop-color:#FF8C2F"/>
	</linearGradient>
	<path class="st0" d="M411.7,512H100.3C44.9,512,0,467.2,0,412V100C0,44.8,44.9,0,100.3,0h311.3C467.1,0,512,44.8,512,100v312
		C512,467.2,467.1,512,411.7,512z"/>
</g>
<g id="circle">
	<circle class="st1" cx="384.7" cy="129.8" r="33"/>
	<circle class="st1" cx="129.5" cy="383.7" r="33"/>
	<g>
		<path class="st1" d="M92.8,339.5c-3.8,0-7.5-2.2-9.1-5.9c-15.4-34.6-20.1-72.8-13.4-110.2c6.8-38.4,25-73.2,52.6-100.9
			c27.6-27.6,62.5-45.8,100.9-52.6c37.5-6.6,75.6-2,110.2,13.4c5,2.2,7.3,8.2,5.1,13.2c-2.2,5.1-8.2,7.3-13.2,5.1
			c-63.7-28.3-139.6-14.3-188.8,35c-49.3,49.3-63.3,125.2-35,188.8c2.2,5,0,11-5.1,13.2C95.5,339.2,94.1,339.5,92.8,339.5z"/>
		<path class="st1" d="M256.6,445.9c-26.4,0-52.5-5.5-76.9-16.4c-5.1-2.2-7.3-8.2-5.1-13.2s8.2-7.3,13.2-5.1
			c63.7,28.3,139.6,14.3,188.8-35s63.4-125.2,35-188.8c-2.2-5.1,0-11,5.1-13.2c5-2.2,11,0,13.2,5.1c15.4,34.6,20.1,72.8,13.5,110.2
			c-6.8,38.4-25,73.2-52.6,100.9c-27.6,27.6-62.5,45.8-100.9,52.6C278.8,445,267.7,445.9,256.6,445.9z"/>
	</g>
</g>
<g>
	<path class="st1" d="M325.8,166.2H186.2c-8.6,0-15.5,7-15.5,15.5V205c0,8.6,7,15.5,15.5,15.5h139.6c8.6,0,15.5-7,15.5-15.5v-23.3
		C341.3,173.1,334.4,166.2,325.8,166.2z M201.7,201.1c0,2.1-1.7,3.9-3.9,3.9c-2.1,0-3.9-1.7-3.9-3.9v-15.5c0-2.1,1.7-3.9,3.9-3.9
		c2.1,0,3.9,1.7,3.9,3.9L201.7,201.1L201.7,201.1z M217.2,201.1c0,2.1-1.7,3.9-3.9,3.9c-2.1,0-3.9-1.7-3.9-3.9v-15.5
		c0-2.1,1.7-3.9,3.9-3.9c2.1,0,3.9,1.7,3.9,3.9V201.1z M232.7,201.1c0,2.1-1.7,3.9-3.9,3.9s-3.9-1.7-3.9-3.9v-15.5
		c0-2.1,1.7-3.9,3.9-3.9c2.1,0,3.9,1.7,3.9,3.9L232.7,201.1L232.7,201.1z M287,201.1c-4.3,0-7.8-3.5-7.8-7.8c0-4.3,3.5-7.8,7.8-7.8
		s7.8,3.5,7.8,7.8C294.8,197.6,291.3,201.1,287,201.1z M310.3,201.1c-4.3,0-7.8-3.5-7.8-7.8c0-4.3,3.5-7.8,7.8-7.8
		c4.3,0,7.8,3.5,7.8,7.8C318.1,197.6,314.6,201.1,310.3,201.1z"/>
	<path class="st1" d="M325.8,229.3H186.2c-8.6,0-15.5,7-15.5,15.5v23.3c0,8.6,7,15.5,15.5,15.5h139.6c8.6,0,15.5-7,15.5-15.5v-23.3
		C341.3,236.3,334.4,229.3,325.8,229.3z M201.7,264.3c0,2.1-1.7,3.9-3.9,3.9c-2.1,0-3.9-1.7-3.9-3.9v-15.5c0-2.1,1.7-3.9,3.9-3.9
		c2.1,0,3.9,1.7,3.9,3.9L201.7,264.3L201.7,264.3z M217.2,264.3c0,2.1-1.7,3.9-3.9,3.9c-2.1,0-3.9-1.7-3.9-3.9v-15.5
		c0-2.1,1.7-3.9,3.9-3.9c2.1,0,3.9,1.7,3.9,3.9V264.3z M232.7,264.3c0,2.1-1.7,3.9-3.9,3.9s-3.9-1.7-3.9-3.9v-15.5
		c0-2.1,1.7-3.9,3.9-3.9c2.1,0,3.9,1.7,3.9,3.9L232.7,264.3L232.7,264.3z M287,264.3c-4.3,0-7.8-3.5-7.8-7.8c0-4.3,3.5-7.8,7.8-7.8
		s7.8,3.5,7.8,7.8C294.8,260.8,291.3,264.3,287,264.3z M310.3,264.3c-4.3,0-7.8-3.5-7.8-7.8c0-4.3,3.5-7.8,7.8-7.8
		c4.3,0,7.8,3.5,7.8,7.8C318.1,260.8,314.6,264.3,310.3,264.3z"/>
	<path class="st1" d="M325.8,292.5H186.2c-8.6,0-15.5,7-15.5,15.5v23.3c0,8.6,7,15.5,15.5,15.5h139.6c8.6,0,15.5-7,15.5-15.5V308
		C341.3,299.5,334.4,292.5,325.8,292.5z M201.7,327.4c0,2.1-1.7,3.9-3.9,3.9c-2.1,0-3.9-1.7-3.9-3.9v-15.5c0-2.1,1.7-3.9,3.9-3.9
		c2.1,0,3.9,1.7,3.9,3.9L201.7,327.4L201.7,327.4z M217.2,327.4c0,2.1-1.7,3.9-3.9,3.9c-2.1,0-3.9-1.7-3.9-3.9v-15.5
		c0-2.1,1.7-3.9,3.9-3.9c2.1,0,3.9,1.7,3.9,3.9V327.4z M232.7,327.4c0,2.1-1.7,3.9-3.9,3.9s-3.9-1.7-3.9-3.9v-15.5
		c0-2.1,1.7-3.9,3.9-3.9c2.1,0,3.9,1.7,3.9,3.9L232.7,327.4L232.7,327.4z M287,327.4c-4.3,0-7.8-3.5-7.8-7.8s3.5-7.8,7.8-7.8
		s7.8,3.5,7.8,7.8S291.3,327.4,287,327.4z M310.3,327.4c-4.3,0-7.8-3.5-7.8-7.8s3.5-7.8,7.8-7.8c4.3,0,7.8,3.5,7.8,7.8
		S314.6,327.4,310.3,327.4z"/>
</g>
</svg>
